<svg width="60" height="60" viewBox="0 0 60 60" fill="none" xmlns="http://www.w3.org/2000/svg">
<rect width="60" height="60" rx="3" fill="#ECEBEB"/>
<path d="M17.2125 39.3275V38.0775H42.7875V39.3275H17.2125ZM20.7688 36.8275C20.1938 36.8275 19.7138 36.6346 19.3288 36.2488C18.9429 35.8638 18.75 35.3833 18.75 34.8075V22.595C18.75 22.02 18.9429 21.54 19.3288 21.155C19.7146 20.77 20.1946 20.5775 20.7688 20.5775H39.2313C39.8063 20.5775 40.2863 20.77 40.6713 21.155C41.0571 21.5408 41.25 22.0213 41.25 22.5963V34.8088C41.25 35.3838 41.0575 35.8638 40.6725 36.2488C40.2875 36.6338 39.8071 36.8267 39.2313 36.8275H20.7688ZM20.7688 35.5775H39.2313C39.4229 35.5775 39.5992 35.4971 39.76 35.3362C39.92 35.1762 40 35 40 34.8075V22.595C40 22.4033 39.92 22.2275 39.76 22.0675C39.5992 21.9075 39.4229 21.8275 39.2313 21.8275H20.7688C20.5771 21.8275 20.4009 21.9075 20.24 22.0675C20.08 22.2275 20 22.4038 20 22.5963V34.8088C20 35.0004 20.08 35.1762 20.24 35.3362C20.4009 35.4971 20.5771 35.5775 20.7688 35.5775Z" fill="#333333"/>
</svg>
